<svg width="304" height="891" viewBox="0 0 304 891" fill="none" xmlns="http://www.w3.org/2000/svg">
<mask id="path-1-inside-1_31_111" fill="#8b7355">
<path d="M120.927 738.624C119.355 749.326 123.011 760.15 120.863 771.378C117.387 768.572 117.457 768.535 115.687 765.167C105.467 745.729 98.1198 725.069 89.7513 704.837C86.4917 696.956 85.0179 688.543 81.8467 680.773C76.61 667.943 72.7862 654.813 69.6022 641.362C67.7377 633.485 64.2923 625.978 61.455 618.343C61.0776 617.327 60.3275 616.281 58.943 616.011C56.9026 617.111 56.3885 618.723 57.0402 620.981C58.005 624.325 58.7201 627.739 59.6429 631.096C63.303 644.408 62.1017 659.031 70.4078 671.097C70.5766 671.342 70.5209 671.745 70.5619 672.075C72.3817 686.738 79.5137 699.736 83.8372 713.617C88.3895 728.232 95.7337 741.886 101.552 756.096C105.981 766.911 109.536 778.591 119.604 786.758C123.674 790.06 125.378 796.78 125.517 802.686C125.829 815.936 129.323 828.719 130.969 841.775C132.746 855.869 135.336 869.867 136.468 884.053C136.835 888.665 139.493 890.951 144.106 890.495C149.322 889.979 152.554 885.952 152.017 880.686C151.917 879.695 152.017 878.684 151.942 877.689C150.999 865.133 150.017 852.581 149.097 840.024C148.724 834.936 147.325 829.912 147.707 823.892C169.529 848.768 190.756 873.014 219.137 889.379C221.145 887.164 221.179 885.201 219.124 883.893C212.413 879.62 208.049 873.213 202.993 867.324C194.693 857.656 185.436 848.815 176.998 839.259C169.647 830.935 162.847 822.122 155.864 813.476C154.878 812.254 153.546 811.057 154.464 809.049C158.012 801.29 158.553 792.669 159.54 784.541C161.365 769.511 163.829 754.696 167.969 740.198C172.52 724.262 174.567 707.666 180.752 692.171C180.989 691.578 180.912 690.856 180.961 690.192C181.664 680.696 184.716 671.688 187.308 662.665C189.95 653.466 192.673 644.172 194.894 634.971C197.959 622.269 201.287 609.616 205.062 597.159C208.257 586.62 211.275 575.979 215.127 565.577C218.022 557.76 220.824 549.742 223.468 541.772C228.303 527.198 234.412 513.013 240.599 498.933C245.035 488.836 248.384 478.287 253.526 468.482C255.124 465.436 256.43 462.107 255.657 458.423C255.21 456.297 255.701 453.999 257.67 453.244C260.698 452.083 261.026 449.945 260.979 447.342C260.943 445.298 261.535 443.506 262.532 441.67C267.118 433.218 271.512 424.661 276.028 416.17C276.968 414.403 277.21 412.642 276.044 410.333C270.828 419.459 265.613 428.584 260.16 438.124C253.136 428.007 244.86 423.203 238.633 425.214C242.413 433.787 245.203 443.03 255.44 446.099C255.704 447.791 255.434 449.028 254.792 450.267C245.25 468.678 236.783 487.606 227.916 506.342C226.281 509.798 225.569 514.518 222.859 516.452C218.378 519.65 217.091 524.881 216.488 528.515C215.483 534.57 212.73 539.603 211.056 545.162C207.81 555.945 202.416 565.788 198.788 576.412C193.683 591.357 188.698 606.356 183.854 621.374C179.101 636.107 175.85 651.323 171.86 666.306C167.595 682.325 162.954 698.251 159.006 714.347C155.779 727.505 153.53 740.899 150.483 754.105C147.449 767.251 145.282 780.454 145.543 793.992C145.577 795.735 146.102 797.634 144.159 799.253C140.893 765.48 133.511 731.886 139.95 697.781C142.509 697.381 142.699 700.932 145.301 699.687C146.267 697.096 144.563 694.865 143.491 692.87C140.369 687.062 140.466 680.895 141.362 674.835C142.768 665.331 144.642 655.881 146.729 646.499C148.519 638.458 150.181 630.375 152.179 622.372C154.284 613.936 155.848 605.264 157.926 596.744C158.697 593.581 160.493 590.383 158.964 586.231C156.078 590.543 155.074 595.052 153.154 599.069C151.279 598.398 149.912 597.909 148.605 597.441C139.887 614.484 135.044 632.581 131.147 651.127C128.616 650.23 128.255 648.976 127.847 647.699C125.32 639.797 122.349 632.003 120.416 623.96C119.62 620.645 117.813 617.497 118.054 613.917C118.494 607.374 117.015 601.044 115.411 594.817C112.853 584.887 109.838 575.075 107.033 565.208C102.319 548.628 99.8761 531.326 92.8273 515.523C89.2569 507.518 89.1653 499.453 90.322 491.663C92.9699 473.83 90.5101 455.675 94.4657 437.978C95.7605 432.186 95.3627 426.183 95.6532 420.268C95.9671 413.874 97.8394 407.557 99.022 401.205C101.42 388.326 104.052 375.493 108.354 363.093C113.167 349.216 116.35 334.804 122.028 321.223C125.671 312.509 129.221 303.752 132.905 295.064C137.155 285.043 142.201 275.367 146.001 265.124C149.098 256.775 152.443 248.506 156.001 240.343C161.23 228.344 166.672 216.436 172.165 204.555C176.517 195.143 178.575 184.799 184.671 176.053C189.002 169.839 192.481 162.993 195.972 156.24C201.019 146.477 207.093 137.349 211.639 127.209C217.671 113.753 228.262 102.506 231.201 87.116C213.935 108.481 197.052 129.979 183.573 154.394C180.41 152.17 176.76 151.72 174.684 148.482C173.511 146.652 171.422 146.972 169.644 147.348C167.455 147.811 167.835 149.758 167.632 151.388C167.042 156.119 168.608 159.915 172.463 162.69C175.872 165.143 175.669 167.858 173.693 171.2C164.592 186.593 156.58 202.537 149.597 219.012C146.462 226.41 142.863 233.611 139.545 240.749C137.507 240.522 136.743 239.372 135.735 238.528C133.192 236.4 129.695 235.499 127.516 237.689C124.653 240.566 129.13 241.915 130.231 244.001C130.578 244.657 131.402 245.314 132.121 245.482C137.871 246.83 136.176 250.257 134.598 253.783C125.448 274.228 116.201 294.632 108.526 315.699C104.891 325.676 100.725 335.484 97.6083 345.617C94.5474 355.571 92.4021 365.813 89.9083 375.941C85.982 391.885 82.0626 407.791 80.4673 424.177C80.3457 425.427 80.3109 426.891 78.6293 427.239C77.2998 426.652 77.1244 425.503 76.9881 424.322C76.2533 417.959 74.7434 411.724 74.261 405.301C73.0087 388.626 70.9369 371.998 70.1864 355.306C69.4995 340.031 68.3463 324.739 69.0001 309.413C69.4107 299.788 69.5347 290.149 70.0626 280.532C70.1996 278.036 70.0103 273.787 74.3182 275.145C77.7269 276.22 79.1161 274.678 80.9346 272.941C80.0897 269.348 78.1916 266.598 75.8483 264.225C73.1351 261.477 72.6547 258.59 73.4215 254.791C75.4857 244.565 77.5574 234.332 78.0498 223.837C78.4027 216.312 78.6224 208.639 80.293 201.352C82.7641 190.572 83.646 179.584 85.6603 168.755C87.0819 161.112 87.8936 159.393 95.6216 158.524C99.9886 158.033 104.167 156.823 107.666 154.23C109.963 152.528 113.095 150.38 111.534 146.913C110.225 144.005 106.99 143.274 103.869 143.152C97.0249 142.885 87.1514 151.432 86.6141 158.271C86.427 160.652 85.5231 162.496 83.621 163.705C82.4503 164.449 81.2374 165.107 80.9416 166.474C79.8177 171.666 77.2076 176.352 76.3094 181.681C75.3087 187.618 74.2509 193.708 70.4094 199.522C65.278 193.29 59.5902 188.948 50.5183 192.218C54.813 200.224 60.11 206.125 69.9536 207.298C68.1139 210.915 67.9136 214.225 67.1713 217.403C63.4361 233.394 59.2737 249.256 57.29 265.647C55.6953 278.823 55.3239 292.053 54.7739 305.24C54.1792 319.499 55.3008 333.829 55.6238 348.129C55.9166 361.089 58.4319 373.835 59.2776 386.733C59.7142 393.394 61.445 399.809 62.2917 406.355C63.2301 413.61 63.3735 420.985 65.043 428.141C66.6882 435.193 68.6812 442.165 68.5991 449.501C68.5881 450.486 68.5695 451.591 68.9731 452.441C72.2292 459.304 75.1656 466.13 70.92 473.716C70.5435 474.389 71.1157 475.628 71.3237 476.587C72.3774 481.446 74.3083 486.286 74.3876 491.157C74.8881 521.906 74.2206 552.657 76.3296 583.401C77.1137 594.831 81.0837 605.895 79.7847 617.494C79.7176 618.093 80.1551 618.757 80.3887 619.379C84.5597 630.486 85.7823 642.362 87.1576 653.86C89.3758 672.404 95.4778 690.034 97.903 708.437C98.7313 714.723 101.402 720.541 103.272 726.503C105.366 733.178 105.086 740.897 110.984 747.323C110.984 741.775 111.059 737.176 110.967 732.58C110.804 724.423 112.683 716.262 112.402 708.317C112.121 700.333 110.449 692.128 108.42 684.123C104.758 669.675 101.302 655.135 99.864 640.222C99.0207 631.479 98.0921 622.74 96.9748 614.028C95.4366 602.034 93.4471 590.093 92.1406 578.076C91.6279 573.36 90.5212 568.471 92.4222 563.59C94.187 568.35 94.9778 573.4 96.8384 578.018C101.986 590.797 104.754 604.32 109.572 617.195C113.748 628.357 116.939 640.042 122.025 650.668C126.622 660.271 129.549 668.892 126.7 679.491C123.641 690.872 123.93 702.81 122.681 714.491C121.854 722.218 119.967 729.893 120.927 738.624ZM171.064 125.427C170.591 122.61 168.123 121.556 166.205 120.085C162.356 117.132 158.992 113.709 156.489 109.59C153.631 104.885 148.912 102.38 144.796 99.1914C143.339 98.0621 141.129 97.3558 139.154 99.5687C139.436 101.457 139.439 103.662 140.118 105.634C143.279 114.822 146.54 123.978 149.951 133.077C151.426 137.012 154.007 140.374 157.355 142.881C160.829 145.481 164.825 146.263 169.076 144.655C172.946 143.191 173.375 139.87 174.186 136.37C175.156 132.185 172.236 129.532 171.064 125.427ZM51.847 577.538C42.8457 571.455 35.4522 562.82 24.418 559.652C22.2949 564.397 26.9771 566.689 27.2304 570.047C27.7076 576.376 33.397 579.54 35.5367 584.893C36.3267 586.869 37.9136 589.825 40.4394 590.854C46.5979 593.364 51.9893 596.338 53.0473 603.844C53.235 605.176 54.7931 606.461 56.5271 605.968C58.1554 605.504 58.0242 603.888 57.921 602.593C57.7111 599.958 56.5014 597.091 57.186 594.753C59.1973 587.886 56.5676 582.814 51.847 577.538ZM155.851 42.7379C153.887 40.6497 151.576 38.2434 148.694 40.054C145.56 42.0232 147.115 44.9528 147.948 48.0212C149.764 54.7128 153.242 60.7507 154.948 67.4302C155.924 71.2533 158.147 74.3132 160.487 77.3456C162.574 80.0513 164.819 80.9073 168.201 79.1838C173.972 76.2434 176.283 71.4876 172.777 65.7086C167.976 57.7974 164.691 48.6058 155.851 42.7379ZM202.989 445.038C202.999 442.045 203.193 439.04 202.974 436.064C202.661 431.81 204.697 427.625 202.962 423.299C201.769 420.325 200.488 419.669 197.885 421.754C194.686 424.316 193.633 427.963 192.461 431.596C191.467 434.679 189.523 435.284 187.374 432.922C185.059 430.379 182.011 429.947 179.08 428.892C177.703 436.201 181.159 442.556 187.572 444.407C189.461 444.952 190.111 445.893 190.636 447.722C191.734 451.545 194.6 456.204 197.74 455.908C202.094 455.496 203.053 450.325 202.989 445.038ZM208.745 471.329C208.282 471.977 207.956 472.811 206.609 472.642C206.92 468.162 207.232 463.653 207.565 458.853C204.423 458.836 201.736 458.715 199.805 461.485C196.637 466.031 194.64 471.061 193.766 476.465C193.237 479.729 193.17 483.14 195.251 486.084C197.363 489.071 199.486 488.945 201.144 485.756C202.282 483.565 203.377 481.352 204.535 479.063C210.49 481.023 215.6 477.714 221.058 477.154C223.679 476.885 224.445 473.633 224.618 471.138C224.79 468.651 222.332 468.054 220.654 467.316C215.923 465.237 211.985 466.393 208.745 471.329ZM199.111 206.114C196.62 206.147 193.503 204.69 192.391 208.368C191.477 211.39 193.527 213.21 195.573 215.059C199.836 218.911 205.125 220.395 210.215 222.645C215.352 224.915 220.282 225.103 225.376 225.373C229 225.565 230.486 222.514 228.859 219.225C227.202 215.879 224.968 213.079 221.389 211.569C214.504 208.665 207.075 207.927 199.111 206.114ZM125.565 250.862C122.675 243.942 117.219 239.091 112.101 233.923C107.869 229.648 103.974 228.827 98.1831 231.682C98.2299 233.104 98.2082 234.725 99.2546 235.829C103.969 240.801 106.842 246.984 110.617 252.569C112.703 255.656 115.559 258.337 118.465 260.718C120.48 262.37 123.598 262.303 125.444 260.662C128.335 258.092 127.607 254.676 125.565 250.862ZM196.131 498.193C188.705 501.594 182.39 506.279 178.07 513.378C181.343 515.861 191.916 516.545 194.597 514.287C197.245 512.057 200.317 510.707 203.492 510.16C209.196 509.176 211.671 505.975 212.169 500.473C212.629 495.384 209.642 492.839 204.598 494.558C201.938 495.465 199.429 496.815 196.131 498.193ZM243.822 21.8156C242.374 18.8715 241.049 15.9216 240.277 12.671C239.255 8.36437 236.801 4.77473 233.018 2.36732C230.833 0.977075 228.073 -1.12176 225.764 0.726188C223.229 2.7552 222.571 6.55493 223.928 9.43693C226.35 14.5813 225.953 20.5037 229.45 25.4414C231.994 29.0331 234.73 30.9822 238.789 30.4097C243.066 29.8064 244.102 26.45 243.822 21.8156ZM265.566 517.575C266.469 516.601 267.579 515.749 268.237 514.63C270.19 511.309 268.552 506.52 265.183 506.232C254.342 505.307 245.084 509.211 237.398 516.622C235.509 518.444 236.056 521.617 239.206 521.856C248.029 522.524 257.136 524.228 265.566 517.575ZM177.406 547.499C187.716 548.535 194.532 542.371 201.057 535.817C202.353 534.515 203.679 532.391 202.147 530.494C200.956 529.018 199.333 527.788 196.936 528.696C194.956 529.447 192.745 529.562 190.693 530.157C183.507 532.241 176.952 535.603 171.654 540.913C170.059 542.511 167.716 544.868 169.178 547.414C170.595 549.881 173.084 547.195 175.103 547.517C175.587 547.594 176.095 547.512 177.406 547.499ZM137.529 217.507C141.942 215.739 141.995 211.521 140.481 208.731C137.441 203.133 133.459 197.385 126.961 195.731C121.44 194.326 118.431 196.36 117.597 202.507C116.801 208.372 121.22 210.664 123.96 214.035C127.213 218.037 131.767 219.131 137.529 217.507ZM97.524 178.2C99.1751 183.206 102.587 186.306 107.776 187.133C109.95 187.479 112.266 189.399 114.407 186.279C116.354 183.44 115.956 180.884 114.577 178.377C110.651 171.239 104.824 166.08 97.379 162.758C94.356 161.41 92.6491 162.253 92.2969 165.665C91.7924 170.552 94.6673 173.961 97.524 178.2ZM39.6617 536.074C40.9702 542.546 42.4927 548.985 43.5174 555.501C44.2956 560.45 46.2075 564.526 51.2833 568.743C44.1743 542.403 41.8886 516.499 35.4094 491.414C35.6897 506.166 36.4087 520.816 39.6617 536.074ZM273.741 461.29C275.205 461.043 276.9 460.192 278.092 460.651C283.577 462.763 288.585 460.763 293.815 459.629C297.727 458.78 298.98 455.743 299.419 452.933C299.893 449.905 297.033 448.507 294.152 448.101C289.122 447.391 283.967 445.937 279.268 449.072C276.033 451.23 272.747 453.467 270.039 456.215C267.467 458.825 268.55 460.483 273.741 461.29ZM197.079 288.74C192.62 279.636 175.103 274.198 166.901 279.428C166.691 281.191 167.595 282.4 168.752 283.701C174.409 290.063 182.431 291.252 189.958 293.363C193.172 294.264 196.294 293.398 197.079 288.74ZM179.473 249.635C185.341 250.956 190.499 248.503 195.367 245.985C197.976 244.636 200.327 241.712 200.111 238.448C199.906 235.36 196.152 235.368 194.504 235.637C186.917 236.871 179.392 238.617 171.968 240.635C169.877 241.204 169.116 243.991 169.235 246.113C169.37 248.517 171.781 248.941 173.68 249.353C175.279 249.701 176.973 249.615 179.473 249.635ZM264.182 483.303C260.757 484.204 256.859 484.148 255.039 488.192C254.81 488.701 253.571 488.787 252.783 489.006C250.038 489.77 246.484 490.703 247.009 493.935C247.582 497.462 251.693 496.714 254.473 497.307C254.899 497.398 255.41 497.026 255.894 496.924C259.402 496.185 263.109 495.477 266.481 495.282C271.106 495.015 273.823 492.825 276.476 489.997C279.293 486.993 278.212 484.25 274.31 483.087C271.139 482.142 268.097 483.043 264.182 483.303ZM271.914 357.31C267.29 364.878 267.166 373.133 268.894 381.389C269.446 384.025 271.027 387.252 274.597 387.573C278.016 387.881 278.696 384.852 279.985 382.572C281.122 380.56 280.853 378.42 281.068 376.288C281.586 371.143 279.185 366.97 277.229 362.509C276.157 360.062 275.242 358.057 271.914 357.31ZM97.6534 87.6937C102.324 88.6706 104.57 86.7569 103.295 82.437C100.688 73.6075 91.9134 64.0813 80.8255 66.113C81.9002 76.544 88.3829 82.7886 97.6534 87.6937ZM76.197 317.318C77.993 320.528 79.7283 323.783 83.739 324.773C87.2803 325.647 90.9952 323.554 90.5614 320.473C90.0182 316.616 89.2131 312.929 86.5068 309.491C84.1022 306.435 80.265 306.237 78.115 303.575C76.2341 301.247 74.1243 300.372 70.2142 300.609C72.0437 306.275 70.6151 312.408 76.197 317.318ZM199.338 176.578C198.04 175.084 196.718 173.956 194.759 175.718C192.833 177.449 193.666 179.292 194.991 180.497C197.576 182.846 200.077 186.172 204.374 183.171C205.234 182.57 206.641 182.339 207.703 182.51C214.554 183.613 220.696 183.039 225.133 176.705C226.025 175.432 227.176 174.606 226.473 172.876C225.79 171.195 224.715 170.182 222.811 169.965C216.407 169.233 210.617 169.785 206.73 175.988C205.042 178.682 202.662 180.085 199.338 176.578ZM290.551 366.043C291.783 368.942 292.956 371.868 294.266 374.731C295.335 377.067 297.527 376.613 299.498 376.58C301.369 376.549 302.423 375.683 303.126 373.827C305.501 367.563 299.983 353.526 293.955 350.812C291.579 349.742 289.721 350.263 289.749 352.961C289.791 357.073 288.999 361.246 290.551 366.043ZM231.602 124.814C227.49 124.932 224.392 127.014 221.847 130.016C219.965 132.235 220.066 134.11 222.976 135.521C229.237 138.558 241.479 135.858 245.574 130.358C246.555 129.041 247.501 127.445 246.545 125.766C245.623 124.148 244.28 123.247 242.13 123.175C238.752 123.062 235.639 124.235 231.602 124.814ZM19.3423 525.144C14.101 519.296 10.3498 511.532 0.987593 510.705C0.398443 512.765 -0.342088 514.566 0.17385 516.631C2.29487 525.121 9.13902 529.345 15.6994 533.77C17.3097 534.856 19.1012 534.216 19.7763 532.363C20.5486 530.244 21.5779 527.948 19.3423 525.144ZM265.95 397.698C263.368 389.761 254.567 382.973 246.595 383.097C246.912 386.386 250.043 388.662 250.173 391.579C250.467 398.181 255.607 401.076 259.372 405.06C260.758 406.527 262.425 406.874 264.315 405.786C266.284 404.653 267.29 403.274 266.315 400.923C266.011 400.188 266.088 399.295 265.95 397.698ZM57.2232 184.36C58.0379 184.506 58.8881 184.549 59.6607 184.817C62.2889 185.726 64.3258 184.434 65.8177 182.697C67.4968 180.742 65.4833 178.985 64.6182 177.359C63.0076 174.332 59.6366 173.083 57.3699 170.681C53.5337 166.617 49.1585 164.414 43.5329 166.788C44.4362 175.165 50.0649 179.951 57.2232 184.36ZM130.357 156.675C131.819 165.757 139.141 171.541 147.756 170.185C147.661 169.409 147.591 168.619 147.467 167.839C146.264 160.287 140.788 155.903 135.367 151.451C133.001 149.507 130.999 144.715 127.699 147.397C124.297 150.162 128.833 153.133 130.357 156.675ZM186.523 131.211C188.229 129.843 187.922 128.077 187.66 126.212C186.64 118.933 180.571 114.895 176.575 109.668C174.518 106.977 172.088 110.288 171.787 112.781C171.043 118.935 174.893 123.802 177.795 128.548C178.7 130.029 182.372 132.815 186.523 131.211ZM212.205 52.163C213.536 56.3896 216.644 58.5675 220.734 59.7187C223.986 60.6341 225.841 59.9836 225.968 56.1451C226.184 49.5831 218.124 40.8053 210.589 40.1578C211.049 43.9695 211.499 47.6886 212.205 52.163ZM251.271 56.4623C246.387 52.1374 244.847 44.3914 237.458 42.4565C234.143 49.3309 237.212 57.7318 244.15 61.9896C246.109 63.1912 248.011 64.1497 250.158 62.9019C252.495 61.543 252.072 59.2901 251.271 56.4623ZM129.887 414.545C133.395 415.499 136.908 415.813 140.392 414.847C141.295 409.188 139.711 405.654 135.258 404.454C132.121 403.609 128.774 403.51 125.512 403.164C123.512 402.951 121.732 403.607 121.273 405.707C120.852 407.637 121.002 410.04 122.637 411.134C124.612 412.455 126.313 414.621 129.887 414.545ZM173.951 489.999C176.883 494.567 180.179 498.508 186.034 499.593C188.256 500.004 189.553 499.29 190.816 497.952C192.198 496.488 191.63 494.902 190.799 493.359C188.394 488.893 183.975 486.737 180.031 484.08C178.355 482.95 176.329 482.411 174.489 483.981C172.638 485.56 172.848 487.434 173.951 489.999ZM61.4747 452.56C58.7597 448.518 55.0003 445.503 51.4638 442.253C49.8336 440.755 47.9319 440.448 45.954 440.466C44.0667 440.482 42.1468 441.906 43.2411 443.496C46.1093 447.663 45.8502 453.702 51.6332 456.241C55.2611 457.833 59.815 457.025 61.4747 452.56ZM100.759 200.894C93.5911 202.959 87.2558 206.212 83.0921 212.625C84.4387 214.617 86.3554 215.433 87.6785 214.893C92.1009 213.086 97.1119 213.694 101.36 211.015C103.714 209.53 105.279 207.824 105.389 205.259C105.493 202.835 103.693 201.471 100.759 200.894ZM182.582 335.17C183.838 339.193 187.195 341.294 190.582 342.889C192.834 343.95 195.966 344.364 197.735 341.53C198.941 339.597 200.632 336.72 198.826 335.113C195.987 332.589 193.891 328.676 189.419 328.384C188.976 328.356 188.373 328.609 188.071 328.938C186.314 330.858 183.44 331.671 182.582 335.17ZM128.712 547.871C129.442 549.55 130.115 551.421 131.698 552.354C134.2 553.829 137.02 555.807 139.906 554.456C142.261 553.354 141.602 549.926 140.578 548.68C137.051 544.393 133.914 539.662 129.352 536.325C128.359 535.598 126.879 535.011 125.733 536.315C124.797 537.381 124.567 538.58 125.258 539.98C126.42 542.333 127.437 544.758 128.712 547.871ZM103.274 122.462C106.806 122.5 107.936 119.05 110.408 117.548C112.045 116.553 113.764 115.262 112.519 113.238C111.437 111.479 108.761 110.763 107.276 111.561C104.444 113.083 101.537 112.835 98.6405 113.306C95.3104 113.848 91.8591 118.403 92.833 121.472C94.0524 125.316 97.0938 123.036 99.4819 122.716C100.463 122.585 101.457 122.551 103.274 122.462ZM260.122 91.4799C253.158 87.6655 244.796 89.7402 241.398 96.1233C245.922 100.788 251.623 100.16 257.195 99.3607C260.68 98.8612 262.09 95.3598 260.122 91.4799ZM196.469 92.0484C197.498 93.7298 198.2 95.6491 199.954 96.8031C201.214 97.6322 201.609 100.04 203.864 99.0371C205.906 98.1291 206.028 96.2642 205.96 94.3754C205.692 86.8798 201.558 81.8226 195.448 77.0505C194.249 82.4847 194.118 86.9781 196.469 92.0484ZM143.117 180.153C142.868 186.758 147.51 190.389 151.903 193.939C153.834 195.5 158.229 192.68 158.259 190.247C158.338 183.7 150.055 177.725 143.117 180.153ZM225.225 140.934C222.891 139.791 221.565 136.968 218.581 136.918C216.929 136.89 215.142 136.673 214.822 139.046C214.357 142.495 217.821 149.123 221.039 150.788C224.326 152.489 227.724 151.866 229.258 148.842C230.817 145.77 230.219 142.282 225.225 140.934ZM171.64 265.969C175.437 263.654 174.117 260.999 171.921 258.585C168.648 254.99 162.109 254.069 157.535 256.321C158.127 264.637 161.211 266.925 171.64 265.969ZM28.8995 517.396C31.6466 516.566 31.252 514.325 30.6818 512.517C28.9438 507.005 26.4925 501.902 21.0828 499.124C16.6386 503.653 19.4986 508.07 20.9675 512.523C22.1333 516.058 24.1421 518.236 28.8995 517.396ZM211.097 81.2843C211.739 81.81 212.424 82.291 213.014 82.8698C214.781 84.6054 216.946 84.9453 218.837 83.6222C221.049 82.0733 218.634 80.5282 218.413 78.943C217.864 75.0195 214.755 72.7556 213.021 69.6399C212.015 67.834 210.285 65.8188 207.471 66.3381C204.571 72.198 208.609 76.2217 211.097 81.2843ZM159.547 500.739C160.248 501.161 160.91 501.677 161.657 501.985C163.902 502.911 166.083 502.688 167.368 500.525C168.553 498.53 166.851 497.274 165.615 495.867C163.436 493.385 161.528 490.784 158.458 489.117C156.682 488.152 155.29 487.138 153.641 488.711C151.986 490.29 152.078 492.351 153.056 494.234C154.43 496.88 156.568 498.845 159.547 500.739ZM54.4921 140.534C56.1855 141.76 57.9923 142.656 58.687 145.068C59.4145 147.594 61.6871 149.142 64.3452 149.078C66.3685 149.029 68.167 147.75 68.7548 145.643C69.5389 142.832 68.4359 140.665 66.3242 138.625C63.8945 136.278 60.8715 137.949 58.3563 136.898C55.0846 135.53 54.1563 137.11 54.4921 140.534ZM64.8547 523.008C63.6523 518.913 61.0951 517.827 57.7491 519.971C55.4346 521.454 54.3383 523.962 52.7725 526.044C51.7186 527.445 50.8016 529.578 52.7592 530.901C54.4443 532.041 56.6539 532.005 58.2665 530.468C60.5183 528.322 62.5752 525.971 64.8547 523.008ZM43.6867 494.308C44.096 495.959 45.3795 496.907 46.4587 495.511C48.4091 492.987 50.9818 491.262 53.1553 489.103C54.9543 487.317 54.5748 484.243 52.2797 482.505C50.5326 481.182 48.0638 480.813 46.7512 483.089C44.914 486.274 42.5549 489.45 43.6867 494.308ZM165.814 463.626C163.597 468 167.005 469.329 169.873 470.289C173.998 471.671 173.606 468.139 174.384 465.305C170.887 466.371 169.734 460.775 165.814 463.626ZM153.25 540.844C153.83 535.962 152.476 534.436 147.201 534.023C146.349 538.766 147.932 540.827 153.25 540.844Z"/>
</mask>
<path d="M120.927 738.624C119.355 749.326 123.011 760.15 120.863 771.378C117.387 768.572 117.457 768.535 115.687 765.167C105.467 745.729 98.1198 725.069 89.7513 704.837C86.4917 696.956 85.0179 688.543 81.8467 680.773C76.61 667.943 72.7862 654.813 69.6022 641.362C67.7377 633.485 64.2923 625.978 61.455 618.343C61.0776 617.327 60.3275 616.281 58.943 616.011C56.9026 617.111 56.3885 618.723 57.0402 620.981C58.005 624.325 58.7201 627.739 59.6429 631.096C63.303 644.408 62.1017 659.031 70.4078 671.097C70.5766 671.342 70.5209 671.745 70.5619 672.075C72.3817 686.738 79.5137 699.736 83.8372 713.617C88.3895 728.232 95.7337 741.886 101.552 756.096C105.981 766.911 109.536 778.591 119.604 786.758C123.674 790.06 125.378 796.78 125.517 802.686C125.829 815.936 129.323 828.719 130.969 841.775C132.746 855.869 135.336 869.867 136.468 884.053C136.835 888.665 139.493 890.951 144.106 890.495C149.322 889.979 152.554 885.952 152.017 880.686C151.917 879.695 152.017 878.684 151.942 877.689C150.999 865.133 150.017 852.581 149.097 840.024C148.724 834.936 147.325 829.912 147.707 823.892C169.529 848.768 190.756 873.014 219.137 889.379C221.145 887.164 221.179 885.201 219.124 883.893C212.413 879.62 208.049 873.213 202.993 867.324C194.693 857.656 185.436 848.815 176.998 839.259C169.647 830.935 162.847 822.122 155.864 813.476C154.878 812.254 153.546 811.057 154.464 809.049C158.012 801.29 158.553 792.669 159.54 784.541C161.365 769.511 163.829 754.696 167.969 740.198C172.52 724.262 174.567 707.666 180.752 692.171C180.989 691.578 180.912 690.856 180.961 690.192C181.664 680.696 184.716 671.688 187.308 662.665C189.95 653.466 192.673 644.172 194.894 634.971C197.959 622.269 201.287 609.616 205.062 597.159C208.257 586.62 211.275 575.979 215.127 565.577C218.022 557.76 220.824 549.742 223.468 541.772C228.303 527.198 234.412 513.013 240.599 498.933C245.035 488.836 248.384 478.287 253.526 468.482C255.124 465.436 256.43 462.107 255.657 458.423C255.21 456.297 255.701 453.999 257.67 453.244C260.698 452.083 261.026 449.945 260.979 447.342C260.943 445.298 261.535 443.506 262.532 441.67C267.118 433.218 271.512 424.661 276.028 416.17C276.968 414.403 277.21 412.642 276.044 410.333C270.828 419.459 265.613 428.584 260.16 438.124C253.136 428.007 244.86 423.203 238.633 425.214C242.413 433.787 245.203 443.03 255.44 446.099C255.704 447.791 255.434 449.028 254.792 450.267C245.25 468.678 236.783 487.606 227.916 506.342C226.281 509.798 225.569 514.518 222.859 516.452C218.378 519.65 217.091 524.881 216.488 528.515C215.483 534.57 212.73 539.603 211.056 545.162C207.81 555.945 202.416 565.788 198.788 576.412C193.683 591.357 188.698 606.356 183.854 621.374C179.101 636.107 175.85 651.323 171.86 666.306C167.595 682.325 162.954 698.251 159.006 714.347C155.779 727.505 153.53 740.899 150.483 754.105C147.449 767.251 145.282 780.454 145.543 793.992C145.577 795.735 146.102 797.634 144.159 799.253C140.893 765.48 133.511 731.886 139.95 697.781C142.509 697.381 142.699 700.932 145.301 699.687C146.267 697.096 144.563 694.865 143.491 692.87C140.369 687.062 140.466 680.895 141.362 674.835C142.768 665.331 144.642 655.881 146.729 646.499C148.519 638.458 150.181 630.375 152.179 622.372C154.284 613.936 155.848 605.264 157.926 596.744C158.697 593.581 160.493 590.383 158.964 586.231C156.078 590.543 155.074 595.052 153.154 599.069C151.279 598.398 149.912 597.909 148.605 597.441C139.887 614.484 135.044 632.581 131.147 651.127C128.616 650.23 128.255 648.976 127.847 647.699C125.32 639.797 122.349 632.003 120.416 623.96C119.62 620.645 117.813 617.497 118.054 613.917C118.494 607.374 117.015 601.044 115.411 594.817C112.853 584.887 109.838 575.075 107.033 565.208C102.319 548.628 99.8761 531.326 92.8273 515.523C89.2569 507.518 89.1653 499.453 90.322 491.663C92.9699 473.83 90.5101 455.675 94.4657 437.978C95.7605 432.186 95.3627 426.183 95.6532 420.268C95.9671 413.874 97.8394 407.557 99.022 401.205C101.42 388.326 104.052 375.493 108.354 363.093C113.167 349.216 116.35 334.804 122.028 321.223C125.671 312.509 129.221 303.752 132.905 295.064C137.155 285.043 142.201 275.367 146.001 265.124C149.098 256.775 152.443 248.506 156.001 240.343C161.23 228.344 166.672 216.436 172.165 204.555C176.517 195.143 178.575 184.799 184.671 176.053C189.002 169.839 192.481 162.993 195.972 156.24C201.019 146.477 207.093 137.349 211.639 127.209C217.671 113.753 228.262 102.506 231.201 87.116C213.935 108.481 197.052 129.979 183.573 154.394C180.41 152.17 176.76 151.72 174.684 148.482C173.511 146.652 171.422 146.972 169.644 147.348C167.455 147.811 167.835 149.758 167.632 151.388C167.042 156.119 168.608 159.915 172.463 162.69C175.872 165.143 175.669 167.858 173.693 171.2C164.592 186.593 156.58 202.537 149.597 219.012C146.462 226.41 142.863 233.611 139.545 240.749C137.507 240.522 136.743 239.372 135.735 238.528C133.192 236.4 129.695 235.499 127.516 237.689C124.653 240.566 129.13 241.915 130.231 244.001C130.578 244.657 131.402 245.314 132.121 245.482C137.871 246.83 136.176 250.257 134.598 253.783C125.448 274.228 116.201 294.632 108.526 315.699C104.891 325.676 100.725 335.484 97.6083 345.617C94.5474 355.571 92.4021 365.813 89.9083 375.941C85.982 391.885 82.0626 407.791 80.4673 424.177C80.3457 425.427 80.3109 426.891 78.6293 427.239C77.2998 426.652 77.1244 425.503 76.9881 424.322C76.2533 417.959 74.7434 411.724 74.261 405.301C73.0087 388.626 70.9369 371.998 70.1864 355.306C69.4995 340.031 68.3463 324.739 69.0001 309.413C69.4107 299.788 69.5347 290.149 70.0626 280.532C70.1996 278.036 70.0103 273.787 74.3182 275.145C77.7269 276.22 79.1161 274.678 80.9346 272.941C80.0897 269.348 78.1916 266.598 75.8483 264.225C73.1351 261.477 72.6547 258.59 73.4215 254.791C75.4857 244.565 77.5574 234.332 78.0498 223.837C78.4027 216.312 78.6224 208.639 80.293 201.352C82.7641 190.572 83.646 179.584 85.6603 168.755C87.0819 161.112 87.8936 159.393 95.6216 158.524C99.9886 158.033 104.167 156.823 107.666 154.23C109.963 152.528 113.095 150.38 111.534 146.913C110.225 144.005 106.99 143.274 103.869 143.152C97.0249 142.885 87.1514 151.432 86.6141 158.271C86.427 160.652 85.5231 162.496 83.621 163.705C82.4503 164.449 81.2374 165.107 80.9416 166.474C79.8177 171.666 77.2076 176.352 76.3094 181.681C75.3087 187.618 74.2509 193.708 70.4094 199.522C65.278 193.29 59.5902 188.948 50.5183 192.218C54.813 200.224 60.11 206.125 69.9536 207.298C68.1139 210.915 67.9136 214.225 67.1713 217.403C63.4361 233.394 59.2737 249.256 57.29 265.647C55.6953 278.823 55.3239 292.053 54.7739 305.24C54.1792 319.499 55.3008 333.829 55.6238 348.129C55.9166 361.089 58.4319 373.835 59.2776 386.733C59.7142 393.394 61.445 399.809 62.2917 406.355C63.2301 413.61 63.3735 420.985 65.043 428.141C66.6882 435.193 68.6812 442.165 68.5991 449.501C68.5881 450.486 68.5695 451.591 68.9731 452.441C72.2292 459.304 75.1656 466.13 70.92 473.716C70.5435 474.389 71.1157 475.628 71.3237 476.587C72.3774 481.446 74.3083 486.286 74.3876 491.157C74.8881 521.906 74.2206 552.657 76.3296 583.401C77.1137 594.831 81.0837 605.895 79.7847 617.494C79.7176 618.093 80.1551 618.757 80.3887 619.379C84.5597 630.486 85.7823 642.362 87.1576 653.86C89.3758 672.404 95.4778 690.034 97.903 708.437C98.7313 714.723 101.402 720.541 103.272 726.503C105.366 733.178 105.086 740.897 110.984 747.323C110.984 741.775 111.059 737.176 110.967 732.58C110.804 724.423 112.683 716.262 112.402 708.317C112.121 700.333 110.449 692.128 108.42 684.123C104.758 669.675 101.302 655.135 99.864 640.222C99.0207 631.479 98.0921 622.74 96.9748 614.028C95.4366 602.034 93.4471 590.093 92.1406 578.076C91.6279 573.36 90.5212 568.471 92.4222 563.59C94.187 568.35 94.9778 573.4 96.8384 578.018C101.986 590.797 104.754 604.32 109.572 617.195C113.748 628.357 116.939 640.042 122.025 650.668C126.622 660.271 129.549 668.892 126.7 679.491C123.641 690.872 123.93 702.81 122.681 714.491C121.854 722.218 119.967 729.893 120.927 738.624ZM171.064 125.427C170.591 122.61 168.123 121.556 166.205 120.085C162.356 117.132 158.992 113.709 156.489 109.59C153.631 104.885 148.912 102.38 144.796 99.1914C143.339 98.0621 141.129 97.3558 139.154 99.5687C139.436 101.457 139.439 103.662 140.118 105.634C143.279 114.822 146.54 123.978 149.951 133.077C151.426 137.012 154.007 140.374 157.355 142.881C160.829 145.481 164.825 146.263 169.076 144.655C172.946 143.191 173.375 139.87 174.186 136.37C175.156 132.185 172.236 129.532 171.064 125.427ZM51.847 577.538C42.8457 571.455 35.4522 562.82 24.418 559.652C22.2949 564.397 26.9771 566.689 27.2304 570.047C27.7076 576.376 33.397 579.54 35.5367 584.893C36.3267 586.869 37.9136 589.825 40.4394 590.854C46.5979 593.364 51.9893 596.338 53.0473 603.844C53.235 605.176 54.7931 606.461 56.5271 605.968C58.1554 605.504 58.0242 603.888 57.921 602.593C57.7111 599.958 56.5014 597.091 57.186 594.753C59.1973 587.886 56.5676 582.814 51.847 577.538ZM155.851 42.7379C153.887 40.6497 151.576 38.2434 148.694 40.054C145.56 42.0232 147.115 44.9528 147.948 48.0212C149.764 54.7128 153.242 60.7507 154.948 67.4302C155.924 71.2533 158.147 74.3132 160.487 77.3456C162.574 80.0513 164.819 80.9073 168.201 79.1838C173.972 76.2434 176.283 71.4876 172.777 65.7086C167.976 57.7974 164.691 48.6058 155.851 42.7379ZM202.989 445.038C202.999 442.045 203.193 439.04 202.974 436.064C202.661 431.81 204.697 427.625 202.962 423.299C201.769 420.325 200.488 419.669 197.885 421.754C194.686 424.316 193.633 427.963 192.461 431.596C191.467 434.679 189.523 435.284 187.374 432.922C185.059 430.379 182.011 429.947 179.08 428.892C177.703 436.201 181.159 442.556 187.572 444.407C189.461 444.952 190.111 445.893 190.636 447.722C191.734 451.545 194.6 456.204 197.74 455.908C202.094 455.496 203.053 450.325 202.989 445.038ZM208.745 471.329C208.282 471.977 207.956 472.811 206.609 472.642C206.92 468.162 207.232 463.653 207.565 458.853C204.423 458.836 201.736 458.715 199.805 461.485C196.637 466.031 194.64 471.061 193.766 476.465C193.237 479.729 193.17 483.14 195.251 486.084C197.363 489.071 199.486 488.945 201.144 485.756C202.282 483.565 203.377 481.352 204.535 479.063C210.49 481.023 215.6 477.714 221.058 477.154C223.679 476.885 224.445 473.633 224.618 471.138C224.79 468.651 222.332 468.054 220.654 467.316C215.923 465.237 211.985 466.393 208.745 471.329ZM199.111 206.114C196.62 206.147 193.503 204.69 192.391 208.368C191.477 211.39 193.527 213.21 195.573 215.059C199.836 218.911 205.125 220.395 210.215 222.645C215.352 224.915 220.282 225.103 225.376 225.373C229 225.565 230.486 222.514 228.859 219.225C227.202 215.879 224.968 213.079 221.389 211.569C214.504 208.665 207.075 207.927 199.111 206.114ZM125.565 250.862C122.675 243.942 117.219 239.091 112.101 233.923C107.869 229.648 103.974 228.827 98.1831 231.682C98.2299 233.104 98.2082 234.725 99.2546 235.829C103.969 240.801 106.842 246.984 110.617 252.569C112.703 255.656 115.559 258.337 118.465 260.718C120.48 262.37 123.598 262.303 125.444 260.662C128.335 258.092 127.607 254.676 125.565 250.862ZM196.131 498.193C188.705 501.594 182.39 506.279 178.07 513.378C181.343 515.861 191.916 516.545 194.597 514.287C197.245 512.057 200.317 510.707 203.492 510.16C209.196 509.176 211.671 505.975 212.169 500.473C212.629 495.384 209.642 492.839 204.598 494.558C201.938 495.465 199.429 496.815 196.131 498.193ZM243.822 21.8156C242.374 18.8715 241.049 15.9216 240.277 12.671C239.255 8.36437 236.801 4.77473 233.018 2.36732C230.833 0.977075 228.073 -1.12176 225.764 0.726188C223.229 2.7552 222.571 6.55493 223.928 9.43693C226.35 14.5813 225.953 20.5037 229.45 25.4414C231.994 29.0331 234.73 30.9822 238.789 30.4097C243.066 29.8064 244.102 26.45 243.822 21.8156ZM265.566 517.575C266.469 516.601 267.579 515.749 268.237 514.63C270.19 511.309 268.552 506.52 265.183 506.232C254.342 505.307 245.084 509.211 237.398 516.622C235.509 518.444 236.056 521.617 239.206 521.856C248.029 522.524 257.136 524.228 265.566 517.575ZM177.406 547.499C187.716 548.535 194.532 542.371 201.057 535.817C202.353 534.515 203.679 532.391 202.147 530.494C200.956 529.018 199.333 527.788 196.936 528.696C194.956 529.447 192.745 529.562 190.693 530.157C183.507 532.241 176.952 535.603 171.654 540.913C170.059 542.511 167.716 544.868 169.178 547.414C170.595 549.881 173.084 547.195 175.103 547.517C175.587 547.594 176.095 547.512 177.406 547.499ZM137.529 217.507C141.942 215.739 141.995 211.521 140.481 208.731C137.441 203.133 133.459 197.385 126.961 195.731C121.44 194.326 118.431 196.36 117.597 202.507C116.801 208.372 121.22 210.664 123.96 214.035C127.213 218.037 131.767 219.131 137.529 217.507ZM97.524 178.2C99.1751 183.206 102.587 186.306 107.776 187.133C109.95 187.479 112.266 189.399 114.407 186.279C116.354 183.44 115.956 180.884 114.577 178.377C110.651 171.239 104.824 166.08 97.379 162.758C94.356 161.41 92.6491 162.253 92.2969 165.665C91.7924 170.552 94.6673 173.961 97.524 178.2ZM39.6617 536.074C40.9702 542.546 42.4927 548.985 43.5174 555.501C44.2956 560.45 46.2075 564.526 51.2833 568.743C44.1743 542.403 41.8886 516.499 35.4094 491.414C35.6897 506.166 36.4087 520.816 39.6617 536.074ZM273.741 461.29C275.205 461.043 276.9 460.192 278.092 460.651C283.577 462.763 288.585 460.763 293.815 459.629C297.727 458.78 298.98 455.743 299.419 452.933C299.893 449.905 297.033 448.507 294.152 448.101C289.122 447.391 283.967 445.937 279.268 449.072C276.033 451.23 272.747 453.467 270.039 456.215C267.467 458.825 268.55 460.483 273.741 461.29ZM197.079 288.74C192.62 279.636 175.103 274.198 166.901 279.428C166.691 281.191 167.595 282.4 168.752 283.701C174.409 290.063 182.431 291.252 189.958 293.363C193.172 294.264 196.294 293.398 197.079 288.74ZM179.473 249.635C185.341 250.956 190.499 248.503 195.367 245.985C197.976 244.636 200.327 241.712 200.111 238.448C199.906 235.36 196.152 235.368 194.504 235.637C186.917 236.871 179.392 238.617 171.968 240.635C169.877 241.204 169.116 243.991 169.235 246.113C169.37 248.517 171.781 248.941 173.68 249.353C175.279 249.701 176.973 249.615 179.473 249.635ZM264.182 483.303C260.757 484.204 256.859 484.148 255.039 488.192C254.81 488.701 253.571 488.787 252.783 489.006C250.038 489.77 246.484 490.703 247.009 493.935C247.582 497.462 251.693 496.714 254.473 497.307C254.899 497.398 255.41 497.026 255.894 496.924C259.402 496.185 263.109 495.477 266.481 495.282C271.106 495.015 273.823 492.825 276.476 489.997C279.293 486.993 278.212 484.25 274.31 483.087C271.139 482.142 268.097 483.043 264.182 483.303ZM271.914 357.31C267.29 364.878 267.166 373.133 268.894 381.389C269.446 384.025 271.027 387.252 274.597 387.573C278.016 387.881 278.696 384.852 279.985 382.572C281.122 380.56 280.853 378.42 281.068 376.288C281.586 371.143 279.185 366.97 277.229 362.509C276.157 360.062 275.242 358.057 271.914 357.31ZM97.6534 87.6937C102.324 88.6706 104.57 86.7569 103.295 82.437C100.688 73.6075 91.9134 64.0813 80.8255 66.113C81.9002 76.544 88.3829 82.7886 97.6534 87.6937ZM76.197 317.318C77.993 320.528 79.7283 323.783 83.739 324.773C87.2803 325.647 90.9952 323.554 90.5614 320.473C90.0182 316.616 89.2131 312.929 86.5068 309.491C84.1022 306.435 80.265 306.237 78.115 303.575C76.2341 301.247 74.1243 300.372 70.2142 300.609C72.0437 306.275 70.6151 312.408 76.197 317.318ZM199.338 176.578C198.04 175.084 196.718 173.956 194.759 175.718C192.833 177.449 193.666 179.292 194.991 180.497C197.576 182.846 200.077 186.172 204.374 183.171C205.234 182.57 206.641 182.339 207.703 182.51C214.554 183.613 220.696 183.039 225.133 176.705C226.025 175.432 227.176 174.606 226.473 172.876C225.79 171.195 224.715 170.182 222.811 169.965C216.407 169.233 210.617 169.785 206.73 175.988C205.042 178.682 202.662 180.085 199.338 176.578ZM290.551 366.043C291.783 368.942 292.956 371.868 294.266 374.731C295.335 377.067 297.527 376.613 299.498 376.58C301.369 376.549 302.423 375.683 303.126 373.827C305.501 367.563 299.983 353.526 293.955 350.812C291.579 349.742 289.721 350.263 289.749 352.961C289.791 357.073 288.999 361.246 290.551 366.043ZM231.602 124.814C227.49 124.932 224.392 127.014 221.847 130.016C219.965 132.235 220.066 134.11 222.976 135.521C229.237 138.558 241.479 135.858 245.574 130.358C246.555 129.041 247.501 127.445 246.545 125.766C245.623 124.148 244.28 123.247 242.13 123.175C238.752 123.062 235.639 124.235 231.602 124.814ZM19.3423 525.144C14.101 519.296 10.3498 511.532 0.987593 510.705C0.398443 512.765 -0.342088 514.566 0.17385 516.631C2.29487 525.121 9.13902 529.345 15.6994 533.77C17.3097 534.856 19.1012 534.216 19.7763 532.363C20.5486 530.244 21.5779 527.948 19.3423 525.144ZM265.95 397.698C263.368 389.761 254.567 382.973 246.595 383.097C246.912 386.386 250.043 388.662 250.173 391.579C250.467 398.181 255.607 401.076 259.372 405.06C260.758 406.527 262.425 406.874 264.315 405.786C266.284 404.653 267.29 403.274 266.315 400.923C266.011 400.188 266.088 399.295 265.95 397.698ZM57.2232 184.36C58.0379 184.506 58.8881 184.549 59.6607 184.817C62.2889 185.726 64.3258 184.434 65.8177 182.697C67.4968 180.742 65.4833 178.985 64.6182 177.359C63.0076 174.332 59.6366 173.083 57.3699 170.681C53.5337 166.617 49.1585 164.414 43.5329 166.788C44.4362 175.165 50.0649 179.951 57.2232 184.36ZM130.357 156.675C131.819 165.757 139.141 171.541 147.756 170.185C147.661 169.409 147.591 168.619 147.467 167.839C146.264 160.287 140.788 155.903 135.367 151.451C133.001 149.507 130.999 144.715 127.699 147.397C124.297 150.162 128.833 153.133 130.357 156.675ZM186.523 131.211C188.229 129.843 187.922 128.077 187.66 126.212C186.64 118.933 180.571 114.895 176.575 109.668C174.518 106.977 172.088 110.288 171.787 112.781C171.043 118.935 174.893 123.802 177.795 128.548C178.7 130.029 182.372 132.815 186.523 131.211ZM212.205 52.163C213.536 56.3896 216.644 58.5675 220.734 59.7187C223.986 60.6341 225.841 59.9836 225.968 56.1451C226.184 49.5831 218.124 40.8053 210.589 40.1578C211.049 43.9695 211.499 47.6886 212.205 52.163ZM251.271 56.4623C246.387 52.1374 244.847 44.3914 237.458 42.4565C234.143 49.3309 237.212 57.7318 244.15 61.9896C246.109 63.1912 248.011 64.1497 250.158 62.9019C252.495 61.543 252.072 59.2901 251.271 56.4623ZM129.887 414.545C133.395 415.499 136.908 415.813 140.392 414.847C141.295 409.188 139.711 405.654 135.258 404.454C132.121 403.609 128.774 403.51 125.512 403.164C123.512 402.951 121.732 403.607 121.273 405.707C120.852 407.637 121.002 410.04 122.637 411.134C124.612 412.455 126.313 414.621 129.887 414.545ZM173.951 489.999C176.883 494.567 180.179 498.508 186.034 499.593C188.256 500.004 189.553 499.29 190.816 497.952C192.198 496.488 191.63 494.902 190.799 493.359C188.394 488.893 183.975 486.737 180.031 484.08C178.355 482.95 176.329 482.411 174.489 483.981C172.638 485.56 172.848 487.434 173.951 489.999ZM61.4747 452.56C58.7597 448.518 55.0003 445.503 51.4638 442.253C49.8336 440.755 47.9319 440.448 45.954 440.466C44.0667 440.482 42.1468 441.906 43.2411 443.496C46.1093 447.663 45.8502 453.702 51.6332 456.241C55.2611 457.833 59.815 457.025 61.4747 452.56ZM100.759 200.894C93.5911 202.959 87.2558 206.212 83.0921 212.625C84.4387 214.617 86.3554 215.433 87.6785 214.893C92.1009 213.086 97.1119 213.694 101.36 211.015C103.714 209.53 105.279 207.824 105.389 205.259C105.493 202.835 103.693 201.471 100.759 200.894ZM182.582 335.17C183.838 339.193 187.195 341.294 190.582 342.889C192.834 343.95 195.966 344.364 197.735 341.53C198.941 339.597 200.632 336.72 198.826 335.113C195.987 332.589 193.891 328.676 189.419 328.384C188.976 328.356 188.373 328.609 188.071 328.938C186.314 330.858 183.44 331.671 182.582 335.17ZM128.712 547.871C129.442 549.55 130.115 551.421 131.698 552.354C134.2 553.829 137.02 555.807 139.906 554.456C142.261 553.354 141.602 549.926 140.578 548.68C137.051 544.393 133.914 539.662 129.352 536.325C128.359 535.598 126.879 535.011 125.733 536.315C124.797 537.381 124.567 538.58 125.258 539.98C126.42 542.333 127.437 544.758 128.712 547.871ZM103.274 122.462C106.806 122.5 107.936 119.05 110.408 117.548C112.045 116.553 113.764 115.262 112.519 113.238C111.437 111.479 108.761 110.763 107.276 111.561C104.444 113.083 101.537 112.835 98.6405 113.306C95.3104 113.848 91.8591 118.403 92.833 121.472C94.0524 125.316 97.0938 123.036 99.4819 122.716C100.463 122.585 101.457 122.551 103.274 122.462ZM260.122 91.4799C253.158 87.6655 244.796 89.7402 241.398 96.1233C245.922 100.788 251.623 100.16 257.195 99.3607C260.68 98.8612 262.09 95.3598 260.122 91.4799ZM196.469 92.0484C197.498 93.7298 198.2 95.6491 199.954 96.8031C201.214 97.6322 201.609 100.04 203.864 99.0371C205.906 98.1291 206.028 96.2642 205.96 94.3754C205.692 86.8798 201.558 81.8226 195.448 77.0505C194.249 82.4847 194.118 86.9781 196.469 92.0484ZM143.117 180.153C142.868 186.758 147.51 190.389 151.903 193.939C153.834 195.5 158.229 192.68 158.259 190.247C158.338 183.7 150.055 177.725 143.117 180.153ZM225.225 140.934C222.891 139.791 221.565 136.968 218.581 136.918C216.929 136.89 215.142 136.673 214.822 139.046C214.357 142.495 217.821 149.123 221.039 150.788C224.326 152.489 227.724 151.866 229.258 148.842C230.817 145.77 230.219 142.282 225.225 140.934ZM171.64 265.969C175.437 263.654 174.117 260.999 171.921 258.585C168.648 254.99 162.109 254.069 157.535 256.321C158.127 264.637 161.211 266.925 171.64 265.969ZM28.8995 517.396C31.6466 516.566 31.252 514.325 30.6818 512.517C28.9438 507.005 26.4925 501.902 21.0828 499.124C16.6386 503.653 19.4986 508.07 20.9675 512.523C22.1333 516.058 24.1421 518.236 28.8995 517.396ZM211.097 81.2843C211.739 81.81 212.424 82.291 213.014 82.8698C214.781 84.6054 216.946 84.9453 218.837 83.6222C221.049 82.0733 218.634 80.5282 218.413 78.943C217.864 75.0195 214.755 72.7556 213.021 69.6399C212.015 67.834 210.285 65.8188 207.471 66.3381C204.571 72.198 208.609 76.2217 211.097 81.2843ZM159.547 500.739C160.248 501.161 160.91 501.677 161.657 501.985C163.902 502.911 166.083 502.688 167.368 500.525C168.553 498.53 166.851 497.274 165.615 495.867C163.436 493.385 161.528 490.784 158.458 489.117C156.682 488.152 155.29 487.138 153.641 488.711C151.986 490.29 152.078 492.351 153.056 494.234C154.43 496.88 156.568 498.845 159.547 500.739ZM54.4921 140.534C56.1855 141.76 57.9923 142.656 58.687 145.068C59.4145 147.594 61.6871 149.142 64.3452 149.078C66.3685 149.029 68.167 147.75 68.7548 145.643C69.5389 142.832 68.4359 140.665 66.3242 138.625C63.8945 136.278 60.8715 137.949 58.3563 136.898C55.0846 135.53 54.1563 137.11 54.4921 140.534ZM64.8547 523.008C63.6523 518.913 61.0951 517.827 57.7491 519.971C55.4346 521.454 54.3383 523.962 52.7725 526.044C51.7186 527.445 50.8016 529.578 52.7592 530.901C54.4443 532.041 56.6539 532.005 58.2665 530.468C60.5183 528.322 62.5752 525.971 64.8547 523.008ZM43.6867 494.308C44.096 495.959 45.3795 496.907 46.4587 495.511C48.4091 492.987 50.9818 491.262 53.1553 489.103C54.9543 487.317 54.5748 484.243 52.2797 482.505C50.5326 481.182 48.0638 480.813 46.7512 483.089C44.914 486.274 42.5549 489.45 43.6867 494.308ZM165.814 463.626C163.597 468 167.005 469.329 169.873 470.289C173.998 471.671 173.606 468.139 174.384 465.305C170.887 466.371 169.734 460.775 165.814 463.626ZM153.25 540.844C153.83 535.962 152.476 534.436 147.201 534.023C146.349 538.766 147.932 540.827 153.25 540.844Z" fill="black" stroke="black" stroke-width="2" mask="url(#path-1-inside-1_31_111)"/>
</svg>
