<svg width="10398" height="808" viewBox="0 0 10398 808" fill="#9a8b7a" xmlns="http://www.w3.org/2000/svg">
<path d="M8.93623e-05 791.826V15.5261H338.245V69.8671L144.17 44.3601C110.161 39.9242 87.2414 37.7062 75.4121 37.7062V375.951C85.0234 375.951 107.943 374.842 144.17 372.624L326.046 361.534V412.548L144.17 401.458C107.943 399.24 85.0234 398.131 75.4121 398.131V769.646C88.7201 769.646 112.009 767.428 145.279 762.992L341.572 737.485V791.826H8.93623e-05ZM1260.47 15.5261V791.826H1185.05V79.8482H1178.4L910.021 594.424H875.642L570.667 140.843H564.013L588.411 791.826H512.999L540.724 0.00012058H562.904L912.239 519.012H918.893L1180.62 15.5261H1260.47ZM1504.38 791.826V15.5261H1579.8V791.826H1504.38ZM1823.92 15.5261H1899.33V769.646C1913.37 769.646 1935.55 767.428 1965.87 762.992L2149.96 735.267V791.826H1823.92V15.5261ZM2401.85 791.826V463.562L2126.82 15.5261H2211.1L2458.41 421.42H2465.06L2662.47 15.5261H2746.75L2481.7 448.036V791.826H2401.85ZM3130.15 791.826V15.5261H3268.78C3358.24 15.5261 3427.73 34.7488 3477.27 73.1942C3526.81 110.9 3551.57 163.763 3551.57 231.781C3551.57 299.8 3526.81 353.032 3477.27 391.477C3427.73 429.183 3358.24 448.036 3268.78 448.036H3205.56V791.826H3130.15ZM3268.78 42.1421H3205.56V421.42H3268.78C3404.08 421.42 3471.72 358.207 3471.72 231.781C3471.72 105.355 3404.08 42.1421 3268.78 42.1421ZM3549.87 791.826L3848.19 15.5261H3916.94L4215.27 791.826H4134.31L3996.79 428.074H3745.05L3630.82 791.826H3549.87ZM3855.95 73.1942L3752.81 401.458H3986.81L3862.6 73.1942H3855.95ZM4727 423.638V397.022H5007.58V698.67C4973.57 732.68 4931.8 759.296 4882.26 778.518C4833.46 797.741 4778.75 807.352 4718.13 807.352C4656.02 807.352 4598.73 797.371 4546.23 777.409C4493.74 756.708 4447.9 728.244 4408.72 692.016C4369.53 655.05 4338.85 612.168 4316.67 563.372C4295.23 514.576 4284.51 461.344 4284.51 403.676C4284.51 346.008 4295.23 292.776 4316.67 243.98C4338.85 195.184 4369.53 152.672 4408.72 116.445C4447.9 79.4785 4493.74 51.0141 4546.23 31.0521C4598.73 10.3508 4656.02 0.00012058 4718.13 0.00012058C4744.74 0.00012058 4773.58 1.84845 4804.63 5.54512C4836.42 9.24178 4866.73 14.4171 4895.57 21.0711C4924.4 26.9858 4948.8 34.3791 4968.76 43.2512L4963.22 105.355H4956.56C4926.99 79.4785 4891.5 59.8861 4850.1 46.5781C4808.7 33.2701 4764.71 26.6161 4718.13 26.6161C4648.63 26.6161 4587.64 42.5118 4535.14 74.3032C4482.65 105.355 4441.62 149.345 4412.04 206.274C4383.21 262.463 4368.79 328.264 4368.79 403.676C4368.79 479.088 4383.21 545.258 4412.04 602.187C4441.62 658.376 4482.65 702.367 4535.14 734.158C4587.64 765.21 4648.63 780.736 4718.13 780.736C4761.01 780.736 4800.56 774.822 4836.79 762.992C4873.76 751.163 4905.55 734.158 4932.17 711.978V423.638H4727ZM5218.32 791.826V15.5261H5556.57V69.8671L5362.49 44.3601C5328.48 39.9242 5305.56 37.7062 5293.73 37.7062V375.951C5303.34 375.951 5326.26 374.842 5362.49 372.624L5544.37 361.534V412.548L5362.49 401.458C5326.26 399.24 5303.34 398.131 5293.73 398.131V769.646C5307.04 769.646 5330.33 767.428 5363.6 762.992L5559.89 737.485V791.826H5218.32ZM6002.51 791.826V15.5261H6246.49C6332.25 15.5261 6406.92 31.7915 6470.5 64.3222C6534.09 96.8528 6583.62 142.322 6619.11 200.729C6654.6 258.397 6672.34 326.046 6672.34 403.676C6672.34 481.306 6654.6 549.325 6619.11 607.732C6583.62 665.4 6534.09 710.499 6470.5 743.03C6406.92 775.561 6332.25 791.826 6246.49 791.826H6002.51ZM6246.49 42.1421H6077.92V765.21H6246.49C6353.69 765.21 6437.23 733.419 6497.12 669.836C6557.75 606.253 6588.06 517.533 6588.06 403.676C6588.06 289.819 6557.75 201.099 6497.12 137.516C6437.23 73.9334 6353.69 42.1421 6246.49 42.1421ZM6861.37 791.826V15.5261H7199.62V69.8671L7005.54 44.3601C6971.54 39.9242 6948.62 37.7062 6936.79 37.7062V375.951C6946.4 375.951 6969.32 374.842 7005.54 372.624L7187.42 361.534V412.548L7005.54 401.458C6969.32 399.24 6946.4 398.131 6936.79 398.131V769.646C6950.09 769.646 6973.38 767.428 7006.65 762.992L7202.95 737.485V791.826H6861.37ZM7323.36 767.428L7330.01 700.888H7336.67C7365.5 726.026 7398.03 745.618 7434.26 759.665C7470.49 773.713 7506.34 780.736 7541.83 780.736C7592.11 780.736 7632.77 767.059 7663.82 739.703C7694.87 711.609 7710.4 674.272 7710.4 627.694C7710.4 601.817 7704.49 577.789 7692.66 555.609C7681.57 533.429 7662.71 510.879 7636.1 487.96C7610.22 465.041 7574.36 440.273 7528.52 413.657C7496.73 395.174 7466.42 375.951 7437.59 355.989C7408.75 335.288 7385.09 311.629 7366.61 285.013C7348.13 257.658 7338.89 225.127 7338.89 187.421C7338.89 131.232 7359.22 86.1324 7399.88 52.1231C7440.54 17.3745 7494.15 0.00012058 7560.69 0.00012058C7590.26 0.00012058 7622.05 3.32712 7656.06 9.98112C7690.07 15.8958 7716.32 23.6588 7734.8 33.2702L7729.25 95.3741H7722.6C7680.46 49.5355 7626.49 26.6161 7560.69 26.6161C7513.37 26.6161 7475.29 38.8151 7446.46 63.2132C7417.62 86.8718 7403.21 119.033 7403.21 159.696C7403.21 190.009 7410.97 216.255 7426.5 238.435C7442.76 259.876 7463.46 279.468 7488.6 297.212C7513.74 314.217 7540.72 330.852 7569.56 347.117C7602.83 366.34 7634.99 386.671 7666.04 408.112C7697.83 429.553 7723.71 455.429 7743.67 485.742C7764.37 515.315 7774.72 552.652 7774.72 597.751C7774.72 639.154 7765.11 675.751 7745.89 707.542C7726.67 738.594 7699.31 762.992 7663.82 780.736C7629.07 798.48 7588.41 807.352 7541.83 807.352C7512.26 807.352 7477.51 803.656 7437.59 796.262C7397.66 788.869 7359.59 779.258 7323.36 767.428ZM7948.8 791.826V15.5261H8024.21V791.826H7948.8ZM8655.37 423.638V397.022H8935.95V698.67C8901.94 732.68 8860.17 759.296 8810.63 778.518C8761.84 797.741 8707.13 807.352 8646.5 807.352C8584.4 807.352 8527.1 797.371 8474.61 777.409C8422.11 756.708 8376.27 728.244 8337.09 692.016C8297.9 655.05 8267.22 612.168 8245.04 563.372C8223.6 514.576 8212.88 461.344 8212.88 403.676C8212.88 346.008 8223.6 292.776 8245.04 243.98C8267.22 195.184 8297.9 152.672 8337.09 116.445C8376.27 79.4785 8422.11 51.0141 8474.61 31.0521C8527.1 10.3508 8584.4 0.00012058 8646.5 0.00012058C8673.12 0.00012058 8701.95 1.84845 8733 5.54512C8764.79 9.24178 8795.11 14.4171 8823.94 21.0711C8852.77 26.9858 8877.17 34.3791 8897.13 43.2512L8891.59 105.355H8884.94C8855.36 79.4785 8819.87 59.8861 8778.47 46.5781C8737.07 33.2701 8693.08 26.6161 8646.5 26.6161C8577 26.6161 8516.01 42.5118 8463.52 74.3032C8411.02 105.355 8369.99 149.345 8340.42 206.274C8311.58 262.463 8297.17 328.264 8297.17 403.676C8297.17 479.088 8311.58 545.258 8340.42 602.187C8369.99 658.376 8411.02 702.367 8463.52 734.158C8516.01 765.21 8577 780.736 8646.5 780.736C8689.38 780.736 8728.94 774.822 8765.16 762.992C8802.13 751.163 8833.92 734.158 8860.54 711.978V423.638H8655.37ZM9130.06 791.826L9157.78 0.00012058H9171.09L9728.92 674.272H9735.57L9711.18 15.5261H9786.59L9758.86 807.352H9745.55L9187.73 133.08H9181.07L9205.47 791.826H9130.06ZM9946.58 767.428L9953.23 700.888H9959.89C9988.72 726.026 10021.3 745.618 10057.5 759.665C10093.7 773.713 10129.6 780.736 10165.1 780.736C10215.3 780.736 10256 767.059 10287 739.703C10318.1 711.609 10333.6 674.272 10333.6 627.694C10333.6 601.817 10327.7 577.789 10315.9 555.609C10304.8 533.429 10285.9 510.879 10259.3 487.96C10233.4 465.041 10197.6 440.273 10151.7 413.657C10120 395.174 10089.6 375.951 10060.8 355.989C10032 335.288 10008.3 311.629 9989.83 285.013C9971.35 257.658 9962.1 225.127 9962.1 187.421C9962.1 131.232 9982.44 86.1324 10023.1 52.1231C10063.8 17.3745 10117.4 0.00012058 10183.9 0.00012058C10213.5 0.00012058 10245.3 3.32712 10279.3 9.98112C10313.3 15.8958 10339.5 23.6588 10358 33.2702L10352.5 95.3741H10345.8C10303.7 49.5355 10249.7 26.6161 10183.9 26.6161C10136.6 26.6161 10098.5 38.8151 10069.7 63.2132C10040.8 86.8718 10026.4 119.033 10026.4 159.696C10026.4 190.009 10034.2 216.255 10049.7 238.435C10066 259.876 10086.7 279.468 10111.8 297.212C10137 314.217 10163.9 330.852 10192.8 347.117C10226 366.34 10258.2 386.671 10289.3 408.112C10321.1 429.553 10346.9 455.429 10366.9 485.742C10387.6 515.315 10397.9 552.652 10397.9 597.751C10397.9 639.154 10388.3 675.751 10369.1 707.542C10349.9 738.594 10322.5 762.992 10287 780.736C10252.3 798.48 10211.6 807.352 10165.1 807.352C10135.5 807.352 10100.7 803.656 10060.8 796.262C10020.9 788.869 9982.8 779.258 9946.58 767.428Z" fill="#9a8b7"/>
</svg>
